<svg xmlns="http://www.w3.org/2000/svg" viewBox="0 0 16 16" fill="#000000" id="File-C-Sharp--Streamline-Phosphor" height="16" width="16">
  <desc>
    File C Sharp Streamline Icon: https://streamlinehq.com
  </desc>
  <path d="M2.27076875 11.92c0 0.82923125 0.5412625 1.50769375 1.20615625 1.50769375 0.29409375 -0.0065875 0.5726 -0.13358125 0.77043125 -0.35129375 0.32524375 -0.331275 0.8871375 -0.186225 1.0114 0.26108125 0.0561875 0.2022375 0.003175 0.41914375 -0.13995625 0.572675 -0.42440625 0.45685625 -1.018325 0.7186375 -1.641875 0.7236875 -1.3305375 0 -2.41230625 -1.21745625 -2.41230625 -2.71384375s1.08176875 -2.71384375 2.41230625 -2.71384375c0.62355 0.00505 1.21746875 0.26683125 1.641875 0.7236875 0.316575 0.33956875 0.14684375 0.89450625 -0.30551875 0.99888125 -0.204525 0.04719375 -0.418875 -0.01535 -0.565925 -0.165125 -0.19783125 -0.2177125 -0.4763375 -0.34470625 -0.77043125 -0.35129375 -0.66489375 0 -1.20615625 0.6784625 -1.20615625 1.50769375ZM14.93538125 4.98461875v10.25230625c0 0.46425 -0.5025625 0.7544 -0.9046125 0.522275 -0.18659375 -0.107725 -0.3015375 -0.30681875 -0.3015375 -0.522275V5.58769375h-3.6184625c-0.33306875 0 -0.603075 -0.27000625 -0.603075 -0.603075V1.36615625H2.87384375v5.4276875c0 0.46425 -0.5025625 0.75440625 -0.9046125 0.52228125 -0.18659375 -0.107725 -0.3015375 -0.30681875 -0.3015375 -0.52228125v-5.4276875c0 -0.6661625 0.53999375 -1.2061875 1.20615 -1.20615625h7.236925c0.15999375 -0.000125 0.31348125 0.06333125 0.426675 0.1764l4.2215375 4.2215375c0.113075 0.11319375 0.17653125 0.26668125 0.17640625 0.42668125Zm-4.2215375 -0.60308125h2.1627875l-2.1627875 -2.16278125Zm0.60308125 6.63385v1.20615h0.603075c0.46425 0 0.75440625 0.5025625 0.52228125 0.90461875 -0.107725 0.18658125 -0.30683125 0.301525 -0.52228125 0.3015375h-0.603075v0.603075c0 0.46425 -0.50256875 0.75440625 -0.90461875 0.52228125 -0.18659375 -0.10773125 -0.3015375 -0.306825 -0.3015375 -0.52228125v-0.603075h-1.20615625v0.603075c0 0.46425 -0.5025625 0.75440625 -0.9046125 0.52228125 -0.18659375 -0.10773125 -0.3015375 -0.306825 -0.3015375 -0.52228125v-0.603075h-0.603075c-0.46425 -0.000025 -0.7544125 -0.5026 -0.52226875 -0.9046375 0.10773125 -0.18658125 0.30681875 -0.30151875 0.52226875 -0.30151875h0.603075v-1.20615h-0.603075c-0.46425 -0.000025 -0.7544125 -0.5026 -0.52226875 -0.90464375 0.10773125 -0.186575 0.30681875 -0.3015125 0.52226875 -0.3015125h0.603075v-0.603075c0 -0.46425 0.5025625 -0.75440625 0.9046125 -0.52228125 0.18659375 0.10773125 0.3015375 0.30681875 0.3015375 0.52228125v0.603075h1.20615625v-0.603075c0 -0.46425 0.5025625 -0.75440625 0.9046125 -0.52228125 0.18659375 0.10773125 0.30154375 0.30681875 0.30154375 0.52228125v0.603075h0.603075c0.46425 0 0.75440625 0.5025625 0.52228125 0.9046125 -0.107725 0.1865875 -0.30683125 0.30153125 -0.52228125 0.30154375Zm-1.20615625 0h-1.20615625v1.20615h1.20615625Z" stroke-width="0.0625"></path>
</svg>