<svg xmlns="http://www.w3.org/2000/svg" viewBox="0 0 16 16" fill="#000000" id="Coffee--Streamline-Phosphor" height="16" width="16">
  <desc>
    Coffee Streamline Icon: https://streamlinehq.com
  </desc>
  <path d="M4.08 3.52V1.28c0 -0.4310875 0.46666875 -0.70051875 0.84 -0.484975 0.1732625 0.1000375 0.28 0.28490625 0.28 0.484975v2.24c0 0.4310875 -0.46666875 0.70051875 -0.84 0.484975 -0.1732625 -0.1000375 -0.28 -0.28490625 -0.28 -0.484975Zm2.8 0.56c0.30928125 0 0.56 -0.25071875 0.56 -0.56V1.28c0 -0.4310875 -0.46666875 -0.70051875 -0.84 -0.484975 -0.1732625 0.1000375 -0.28 0.28490625 -0.28 0.484975v2.24c0 0.30928125 0.25071875 0.56 0.56 0.56Zm2.24 0c0.30928125 0 0.56 -0.25071875 0.56 -0.56V1.28c0 -0.4310875 -0.46666875 -0.70051875 -0.84 -0.484975 -0.1732625 0.1000375 -0.28 0.28490625 -0.28 0.484975v2.24c0 0.30928125 0.25071875 0.56 0.56 0.56ZM15.84 8v0.56c-0.00045625 1.47838125 -1.1501875 2.70166875 -2.6257 2.7937 -0.3819875 1.08049375 -1.03235 2.04615625 -1.89 2.8063H13.04c0.4310875 0 0.70051875 0.46666875 0.484975 0.84 -0.10003125 0.17325625 -0.2849125 0.27999375 -0.484975 0.28H0.72c-0.4310875 0 -0.70051875 -0.46666875 -0.484975 -0.84 0.1000375 -0.1732625 0.28490625 -0.28 0.484975 -0.28h1.7178C0.9925625 12.8831625 0.1633875 11.048475 0.16 9.12V5.76c0 -0.3092875 0.2507125 -0.5600125 0.56 -0.56h12.32c1.54635 0.00006875 2.8 1.25365 2.8 2.8Zm-3.36 -1.68H1.28v2.8c0.00440625 2.1451625 1.2298375 4.10064375 3.1584 5.04h4.8832c1.9285625 -0.93935625 3.15399375 -2.8948375 3.1584 -5.04ZM14.72 8c-0.00021875 -0.7117625 -0.44894375 -1.34614375 -1.12 -1.5834V9.12c-0.00041875 0.3516625 -0.02850625 0.70274375 -0.084 1.05 0.7135875 -0.210825 1.2034875 -0.865925 1.204 -1.61Z" stroke-width="0.0625"></path>
</svg>